<?xml version="1.0" encoding="utf-8"?>
<!-- Generator: Adobe Illustrator 25.2.1, SVG Export Plug-In . SVG Version: 6.00 Build 0)  -->
<svg version="1.1" id="Layer_1" xmlns="http://www.w3.org/2000/svg" xmlns:xlink="http://www.w3.org/1999/xlink" x="0px" y="0px"
	 viewBox="0 0 792 612" style="enable-background:new 0 0 792 612;" xml:space="preserve">
<style type="text/css">
	.st0{fill:none;stroke:#000000;stroke-width:3;stroke-miterlimit:10;}
	.st1{stroke:#000000;stroke-miterlimit:10;}
	.st2{fill:none;stroke:#000000;stroke-miterlimit:10;}
	.st3{fill:none;stroke:#FFFFFF;stroke-width:2;stroke-miterlimit:10;}
</style>
<line class="st0" x1="663.5" y1="288.5" x2="662.5" y2="288.5"/>
<g>
	<g>
		<path class="st1" d="M348.26,343.98l-94.81,10.39L221.01,58.46c-0.02-0.17,0.11-0.33,0.28-0.34l94.5-10.36
			c27.24-2.99,51.75,16.68,54.74,43.92l21.66,197.57C395.17,316.49,375.5,340.99,348.26,343.98z"/>
		<path class="st2" d="M354.66,347.3l-94.81,10.39L227.41,61.78c-0.02-0.17,0.11-0.33,0.28-0.34l94.5-10.36
			c27.24-2.99,51.75,16.68,54.74,43.92l21.66,197.57C401.57,319.81,381.9,344.31,354.66,347.3z"/>
		<path class="st2" d="M360.17,351.73l-94.81,10.39L232.93,66.2c-0.02-0.17,0.11-0.33,0.28-0.34l94.5-10.36
			c27.24-2.99,51.75,16.68,54.74,43.92l21.66,197.57C407.08,324.23,387.42,348.74,360.17,351.73z"/>
		<path class="st2" d="M364.69,356.26l-94.81,10.39L237.45,70.74c-0.02-0.17,0.11-0.33,0.28-0.34l94.5-10.36
			c27.24-2.99,51.75,16.68,54.74,43.92l21.66,197.57C411.6,328.77,391.94,353.27,364.69,356.26z"/>
	</g>
	<line class="st3" x1="227.5" y1="61.5" x2="258.5" y2="345.5"/>
</g>
<g>
	<g>
		<path class="st1" d="M442.09,515.33l-88.33-35.98l112.29-275.7c0.07-0.16,0.25-0.24,0.41-0.17l88.04,35.86
			c25.38,10.34,37.58,39.3,27.24,64.68l-74.97,184.07C496.43,513.47,467.47,525.66,442.09,515.33z"/>
		<path class="st2" d="M446.13,521.29l-88.33-35.98l112.29-275.7c0.07-0.16,0.25-0.24,0.41-0.17l88.04,35.86
			c25.38,10.34,37.58,39.3,27.24,64.68l-74.97,184.07C500.47,519.44,471.52,531.63,446.13,521.29z"/>
		<path class="st2" d="M448.88,527.81l-88.33-35.98l112.29-275.7c0.07-0.16,0.25-0.24,0.41-0.17l88.04,35.86
			c25.38,10.34,37.58,39.3,27.24,64.68l-74.97,184.07C503.22,525.95,474.26,538.15,448.88,527.81z"/>
		<path class="st2" d="M450.7,533.95l-88.33-35.98l112.29-275.7c0.07-0.16,0.25-0.24,0.41-0.17l88.04,35.86
			c25.38,10.34,37.58,39.3,27.24,64.68l-74.97,184.07C505.04,532.09,476.08,544.29,450.7,533.95z"/>
	</g>
	<line class="st3" x1="470.3" y1="209.42" x2="362.42" y2="473.95"/>
</g>
</svg>
